<svg xmlns="http://www.w3.org/2000/svg" xmlns:xlink="http://www.w3.org/1999/xlink" width="300" zoomAndPan="magnify" viewBox="0 0 224.87999 60" height="80" preserveAspectRatio="xMidYMid meet" version="1.0"><defs><g/><clipPath id="acaadd0c5f"><path d="M 0 2.902344 L 53.222656 2.902344 L 53.222656 50.875 L 0 50.875 Z M 0 2.902344 " clip-rule="nonzero"/></clipPath><clipPath id="60cce133f9"><path d="M 22 9 L 32 9 L 32 9.839844 L 22 9.839844 Z M 22 9 " clip-rule="nonzero"/></clipPath><clipPath id="62532b83b5"><path d="M 20 0.015625 L 35 0.015625 L 35 9.839844 L 20 9.839844 Z M 20 0.015625 " clip-rule="nonzero"/></clipPath><clipPath id="50be31d22e"><path d="M 215 47 L 224.761719 47 L 224.761719 57 L 215 57 Z M 215 47 " clip-rule="nonzero"/></clipPath></defs><g clip-path="url(#acaadd0c5f)"><path fill="#ffde59" d="M 51.277344 28.609375 C 51.839844 28.105469 52.523438 27.746094 53.257812 27.554688 C 53.171875 27.914062 53.097656 28.246094 52.992188 28.542969 C 52.882812 28.84375 52.789062 29.128906 52.683594 29.375 C 52.492188 29.8125 52.265625 30.226562 52 30.621094 C 51.796875 30.910156 51.574219 31.164062 51.316406 31.398438 C 51.222656 31.484375 51.105469 31.570312 51 31.644531 C 50.902344 31.710938 50.796875 31.761719 50.691406 31.816406 C 50.402344 31.953125 50.082031 32.007812 49.761719 31.964844 C 49.699219 31.953125 49.632812 31.945312 49.570312 31.921875 C 49.28125 32.890625 48.941406 33.851562 48.539062 34.789062 C 48.496094 34.875 48.460938 34.960938 48.421875 35.042969 C 48.484375 34.960938 48.558594 34.875 48.632812 34.777344 C 48.707031 34.683594 48.824219 34.574219 48.921875 34.46875 C 49.015625 34.363281 49.125 34.253906 49.242188 34.160156 C 49.484375 33.945312 49.742188 33.765625 50.019531 33.59375 C 50.667969 33.210938 51.414062 32.976562 52.171875 32.933594 C 52.03125 33.253906 51.882812 33.5625 51.710938 33.863281 C 51.636719 34 51.5625 34.136719 51.488281 34.265625 C 51.414062 34.394531 51.328125 34.511719 51.253906 34.628906 C 51.09375 34.851562 50.945312 35.066406 50.796875 35.246094 C 50.636719 35.429688 50.488281 35.585938 50.339844 35.726562 C 49.761719 36.289062 49.230469 36.535156 48.824219 36.644531 C 48.515625 36.726562 48.195312 36.71875 47.886719 36.609375 C 47.824219 36.589844 47.757812 36.558594 47.707031 36.527344 C 47.398438 37.113281 47.066406 37.675781 46.714844 38.230469 C 46.46875 38.613281 46.214844 38.976562 45.949219 39.339844 C 46.03125 39.273438 46.117188 39.199219 46.203125 39.136719 C 47.066406 38.464844 48.3125 37.824219 50.039062 38.039062 C 49.667969 38.570312 49.25 39.0625 48.792969 39.519531 C 48.453125 39.851562 48.066406 40.148438 47.664062 40.414062 C 47.363281 40.597656 47.054688 40.746094 46.726562 40.863281 C 46.480469 40.9375 46.234375 40.980469 45.980469 40.988281 C 45.660156 41 45.351562 40.925781 45.074219 40.753906 C 45.019531 40.722656 44.96875 40.679688 44.914062 40.636719 C 44.722656 40.863281 44.519531 41.097656 44.316406 41.308594 C 43.761719 41.90625 43.1875 42.472656 42.570312 42.992188 C 42.664062 42.941406 42.773438 42.898438 42.867188 42.84375 C 43.878906 42.40625 45.222656 42.035156 46.875 42.621094 C 45.765625 43.632812 44.765625 44.15625 43.996094 44.433594 C 43.667969 44.550781 43.328125 44.613281 42.976562 44.65625 C 42.71875 44.675781 42.472656 44.65625 42.21875 44.601562 C 41.910156 44.539062 41.621094 44.390625 41.398438 44.164062 C 41.355469 44.113281 41.300781 44.058594 41.269531 44.003906 C 40.375 44.65625 39.414062 45.230469 38.414062 45.710938 C 38.519531 45.6875 38.628906 45.667969 38.746094 45.648438 C 39.832031 45.476562 41.226562 45.445312 42.707031 46.414062 C 41.367188 47.148438 40.246094 47.394531 39.4375 47.46875 C 39.085938 47.492188 38.734375 47.480469 38.382812 47.425781 C 38.136719 47.382812 37.890625 47.296875 37.667969 47.179688 C 37.378906 47.042969 37.144531 46.820312 36.984375 46.542969 C 36.953125 46.476562 36.921875 46.425781 36.902344 46.351562 C 36.070312 46.660156 35.21875 46.902344 34.34375 47.074219 C 33.066406 47.332031 31.765625 47.449219 30.453125 47.414062 L 30.433594 47.414062 C 29.816406 47.40625 29.175781 47.394531 28.558594 47.492188 C 28.035156 47.574219 27.535156 47.734375 27.066406 47.96875 C 27.535156 48.269531 27.972656 48.609375 28.375 48.992188 L 28.726562 49.332031 C 28.800781 49.417969 28.878906 49.492188 28.953125 49.578125 L 29.058594 49.707031 C 29.238281 49.898438 29.410156 50.113281 29.582031 50.3125 L 29.699219 50.453125 C 29.761719 50.527344 29.75 50.632812 29.675781 50.6875 C 29.644531 50.707031 29.613281 50.730469 29.570312 50.730469 C 29.515625 50.730469 29.472656 50.707031 29.441406 50.664062 L 29.324219 50.527344 C 29.164062 50.324219 28.996094 50.121094 28.824219 49.941406 L 28.707031 49.8125 C 28.632812 49.738281 28.566406 49.652344 28.492188 49.578125 L 28.152344 49.25 C 27.726562 48.832031 27.246094 48.46875 26.734375 48.160156 C 26.222656 48.46875 25.746094 48.832031 25.308594 49.25 L 24.964844 49.578125 C 24.902344 49.652344 24.828125 49.726562 24.765625 49.800781 L 24.648438 49.929688 C 24.464844 50.121094 24.304688 50.324219 24.144531 50.515625 L 24.027344 50.65625 C 23.996094 50.699219 23.945312 50.71875 23.902344 50.71875 C 23.804688 50.71875 23.730469 50.644531 23.730469 50.546875 C 23.730469 50.503906 23.742188 50.472656 23.773438 50.441406 L 23.890625 50.304688 C 24.050781 50.101562 24.21875 49.886719 24.414062 49.695312 L 24.519531 49.578125 C 24.59375 49.503906 24.65625 49.417969 24.730469 49.34375 L 25.082031 49.003906 C 25.488281 48.621094 25.925781 48.277344 26.382812 47.96875 C 25.914062 47.734375 25.414062 47.574219 24.890625 47.492188 C 24.273438 47.394531 23.632812 47.40625 23.015625 47.414062 L 22.996094 47.414062 C 21.695312 47.449219 20.382812 47.332031 19.105469 47.074219 C 18.902344 47.03125 18.710938 46.988281 18.507812 46.945312 C 18.5 47.011719 18.476562 47.074219 18.445312 47.136719 C 18.328125 47.4375 18.113281 47.683594 17.847656 47.851562 C 17.636719 47.992188 17.402344 48.109375 17.167969 48.183594 C 16.601562 48.332031 16.027344 48.386719 15.441406 48.332031 C 15.175781 48.3125 14.90625 48.277344 14.652344 48.234375 C 14.375 48.183594 14.066406 48.109375 13.746094 48.023438 C 13.425781 47.925781 13.097656 47.800781 12.734375 47.660156 C 13.042969 47.394531 13.394531 47.179688 13.757812 47 C 13.917969 46.914062 14.085938 46.851562 14.257812 46.785156 C 14.417969 46.722656 14.585938 46.667969 14.757812 46.628906 C 15.066406 46.550781 15.386719 46.5 15.707031 46.476562 C 15.996094 46.445312 16.292969 46.445312 16.582031 46.46875 C 16.699219 46.46875 16.804688 46.476562 16.910156 46.488281 C 16.386719 46.308594 15.878906 46.105469 15.375 45.882812 C 14.863281 45.65625 14.375 45.402344 13.882812 45.113281 C 13.851562 45.179688 13.808594 45.230469 13.765625 45.285156 C 13.566406 45.53125 13.296875 45.710938 13 45.804688 C 12.753906 45.882812 12.511719 45.925781 12.253906 45.933594 C 11.902344 45.933594 11.550781 45.890625 11.210938 45.816406 C 10.410156 45.625 9.367188 45.199219 8.152344 44.292969 C 9.738281 43.546875 11.125 43.78125 12.167969 44.121094 C 12.277344 44.15625 12.382812 44.199219 12.488281 44.230469 C 11.570312 43.601562 10.710938 42.886719 9.910156 42.109375 C 9.867188 42.164062 9.8125 42.203125 9.761719 42.246094 C 9.503906 42.4375 9.195312 42.546875 8.886719 42.566406 C 8.640625 42.578125 8.386719 42.566406 8.140625 42.515625 C 7.800781 42.429688 7.480469 42.3125 7.160156 42.152344 C 6.957031 42.054688 6.765625 41.9375 6.585938 41.820312 C 6.382812 41.695312 6.167969 41.542969 5.945312 41.363281 C 5.722656 41.183594 5.507812 40.980469 5.273438 40.753906 C 5.039062 40.53125 4.816406 40.265625 4.5625 39.988281 C 6.265625 39.625 7.566406 40.160156 8.492188 40.746094 C 8.589844 40.796875 8.683594 40.863281 8.78125 40.925781 C 8.046875 40.09375 7.375 39.210938 6.765625 38.273438 C 6.714844 38.304688 6.648438 38.347656 6.597656 38.367188 C 6.308594 38.496094 5.976562 38.539062 5.667969 38.476562 C 5.253906 38.410156 4.710938 38.210938 4.082031 37.699219 C 3.453125 37.1875 2.726562 36.367188 2.015625 35.054688 C 3.75 35.042969 4.914062 35.84375 5.691406 36.609375 C 5.777344 36.683594 5.851562 36.769531 5.914062 36.84375 C 5.539062 36.171875 5.199219 35.46875 4.890625 34.757812 C 4.761719 34.449219 4.636719 34.136719 4.519531 33.828125 C 4.453125 33.851562 4.390625 33.871094 4.328125 33.882812 C 4.015625 33.945312 3.6875 33.925781 3.386719 33.808594 C 3.152344 33.722656 2.941406 33.59375 2.738281 33.445312 C 2.460938 33.242188 2.207031 33 1.992188 32.722656 C 1.863281 32.5625 1.738281 32.390625 1.609375 32.1875 C 1.546875 32.09375 1.480469 31.984375 1.40625 31.878906 C 1.332031 31.773438 1.277344 31.65625 1.214844 31.527344 C 1.085938 31.28125 0.960938 31.015625 0.832031 30.71875 C 0.703125 30.417969 0.597656 30.101562 0.488281 29.75 C 2.214844 30.066406 3.164062 31.082031 3.792969 31.984375 C 3.855469 32.082031 3.921875 32.1875 3.972656 32.285156 C 3.644531 31.21875 3.378906 30.132812 3.1875 29.035156 C 3.121094 29.046875 3.058594 29.054688 2.984375 29.054688 C 2.664062 29.054688 2.355469 28.96875 2.089844 28.800781 C 1.726562 28.585938 1.3125 28.191406 0.925781 27.480469 C 0.820312 27.285156 0.722656 27.085938 0.640625 26.882812 C 0.554688 26.65625 0.46875 26.421875 0.382812 26.15625 C 0.339844 26.03125 0.296875 25.890625 0.265625 25.742188 C 0.234375 25.59375 0.203125 25.445312 0.171875 25.292969 C 0.105469 24.984375 0.0429688 24.644531 0 24.28125 C 0.714844 24.546875 1.351562 24.972656 1.863281 25.539062 C 2.078125 25.773438 2.269531 26.03125 2.441406 26.304688 C 2.589844 26.550781 2.71875 26.816406 2.835938 27.085938 C 2.878906 27.191406 2.917969 27.285156 2.953125 27.394531 C 2.941406 27.339844 2.941406 27.277344 2.929688 27.222656 C 2.824219 26.179688 2.78125 25.132812 2.792969 24.078125 C 2.726562 24.078125 2.652344 24.078125 2.589844 24.070312 C 2.28125 24.015625 1.980469 23.867188 1.746094 23.652344 C 1.566406 23.484375 1.40625 23.289062 1.277344 23.078125 C 1.097656 22.789062 0.960938 22.46875 0.851562 22.140625 C 0.789062 21.949219 0.734375 21.734375 0.683594 21.5 C 0.628906 21.265625 0.597656 21.019531 0.566406 20.746094 C 0.53125 20.445312 0.511719 20.148438 0.511719 19.847656 C 0.5 19.507812 0.511719 19.167969 0.53125 18.824219 C 2.015625 19.753906 2.558594 21.042969 2.800781 22.109375 C 2.824219 22.214844 2.84375 22.320312 2.867188 22.429688 C 2.941406 21.425781 3.070312 20.433594 3.261719 19.453125 C 3.28125 19.347656 3.304688 19.242188 3.324219 19.144531 C 3.261719 19.136719 3.195312 19.113281 3.121094 19.09375 C 2.824219 18.984375 2.566406 18.785156 2.375 18.527344 C 2.226562 18.324219 2.109375 18.113281 2.015625 17.878906 C 1.898438 17.558594 1.8125 17.21875 1.769531 16.875 C 1.671875 16.078125 1.703125 14.980469 2.097656 13.550781 C 2.398438 13.828125 2.652344 14.136719 2.878906 14.46875 C 3.070312 14.765625 3.230469 15.085938 3.355469 15.417969 C 3.472656 15.714844 3.546875 16.023438 3.601562 16.34375 C 3.65625 16.632812 3.6875 16.917969 3.6875 17.207031 C 3.6875 17.3125 3.6875 17.417969 3.6875 17.527344 C 3.972656 16.460938 4.335938 15.417969 4.761719 14.394531 C 4.699219 14.371094 4.644531 14.339844 4.582031 14.308594 C 4.304688 14.136719 4.09375 13.890625 3.964844 13.605469 C 3.78125 13.230469 3.644531 12.667969 3.707031 11.855469 C 3.773438 11.046875 4.027344 9.980469 4.710938 8.648438 C 4.945312 8.980469 5.136719 9.34375 5.285156 9.714844 C 5.414062 10.046875 5.5 10.386719 5.550781 10.738281 C 5.636719 11.347656 5.625 11.964844 5.507812 12.558594 C 5.488281 12.667969 5.464844 12.773438 5.445312 12.878906 C 5.574219 12.625 5.699219 12.367188 5.839844 12.125 C 6.234375 11.398438 6.671875 10.695312 7.140625 10.023438 C 7.085938 9.980469 7.03125 9.949219 6.980469 9.898438 C 6.746094 9.671875 6.585938 9.394531 6.519531 9.074219 C 6.46875 8.832031 6.445312 8.585938 6.457031 8.332031 C 6.480469 7.980469 6.542969 7.636719 6.648438 7.308594 C 6.894531 6.53125 7.375 5.527344 8.363281 4.375 C 8.515625 4.75 8.621094 5.144531 8.671875 5.550781 C 8.726562 5.902344 8.726562 6.261719 8.707031 6.613281 C 8.683594 6.933594 8.632812 7.253906 8.546875 7.5625 C 8.472656 7.851562 8.386719 8.117188 8.269531 8.394531 C 8.226562 8.5 8.183594 8.597656 8.140625 8.691406 C 8.855469 7.808594 9.644531 6.988281 10.484375 6.21875 C 10.507812 6.167969 10.515625 6.113281 10.550781 6.050781 C 10.625 5.878906 10.710938 5.707031 10.804688 5.539062 C 10.859375 5.441406 10.933594 5.335938 10.996094 5.230469 C 11.0625 5.121094 11.15625 5.015625 11.253906 4.910156 C 11.730469 4.367188 12.316406 3.917969 12.980469 3.609375 C 13.925781 3.152344 14.960938 2.917969 16.003906 2.925781 C 15.34375 3.695312 14.597656 4.355469 13.820312 4.972656 C 13.296875 5.390625 12.722656 5.75 12.125 6.050781 C 12 6.113281 11.882812 6.15625 11.773438 6.210938 C 11.667969 6.261719 11.5625 6.304688 11.453125 6.335938 C 11.253906 6.414062 11.070312 6.453125 10.921875 6.496094 C 10.859375 6.507812 10.804688 6.53125 10.761719 6.53125 C 10.433594 6.828125 10.121094 7.125 9.8125 7.445312 C 9.898438 7.390625 9.984375 7.351562 10.070312 7.308594 C 10.316406 7.179688 10.582031 7.074219 10.859375 7.007812 C 11.15625 6.933594 11.453125 6.902344 11.765625 6.914062 C 12.394531 6.933594 13.074219 7.167969 13.757812 7.667969 C 12.765625 8.203125 11.976562 8.566406 11.328125 8.789062 C 10.828125 8.980469 10.292969 9.066406 9.75 9.042969 C 9.441406 9.035156 9.132812 8.9375 8.867188 8.777344 C 8.8125 8.746094 8.757812 8.703125 8.714844 8.660156 C 8.023438 9.492188 7.382812 10.375 6.820312 11.304688 C 6.894531 11.230469 6.96875 11.164062 7.042969 11.101562 C 7.863281 10.398438 9.164062 9.90625 10.730469 10.589844 C 9.847656 11.367188 9.164062 11.921875 8.566406 12.285156 C 8.3125 12.453125 8.035156 12.59375 7.757812 12.699219 C 7.542969 12.785156 7.320312 12.847656 7.085938 12.890625 C 6.777344 12.945312 6.457031 12.921875 6.160156 12.828125 C 6.09375 12.804688 6.042969 12.785156 5.988281 12.753906 C 5.488281 13.710938 5.050781 14.714844 4.679688 15.734375 C 4.730469 15.652344 4.796875 15.566406 4.859375 15.480469 C 5.519531 14.628906 6.679688 13.871094 8.363281 14.203125 C 7.695312 15.148438 7.117188 15.832031 6.617188 16.320312 C 6.234375 16.707031 5.785156 17.015625 5.285156 17.226562 C 4.996094 17.34375 4.679688 17.386719 4.367188 17.34375 C 4.304688 17.335938 4.242188 17.324219 4.175781 17.300781 C 3.964844 18.046875 3.78125 18.804688 3.632812 19.570312 C 3.582031 19.882812 3.527344 20.191406 3.472656 20.488281 C 3.515625 20.390625 3.558594 20.296875 3.601562 20.199219 C 3.867188 19.667969 4.25 19.210938 4.742188 18.867188 C 5.253906 18.507812 5.945312 18.261719 6.789062 18.238281 C 6.308594 19.316406 5.894531 20.105469 5.488281 20.679688 C 5.304688 20.9375 5.113281 21.171875 4.902344 21.382812 C 4.730469 21.554688 4.550781 21.691406 4.347656 21.820312 C 4.082031 21.992188 3.78125 22.085938 3.472656 22.109375 C 3.410156 22.109375 3.347656 22.109375 3.28125 22.109375 C 3.1875 23.195312 3.152344 24.28125 3.1875 25.367188 C 3.207031 25.273438 3.238281 25.167969 3.261719 25.070312 C 3.421875 24.503906 3.71875 23.984375 4.125 23.546875 C 4.644531 23.035156 5.304688 22.683594 6.019531 22.546875 C 5.753906 23.695312 5.488281 24.546875 5.1875 25.1875 C 5.0625 25.464844 4.914062 25.742188 4.742188 25.996094 C 4.613281 26.1875 4.453125 26.371094 4.285156 26.53125 C 4.058594 26.742188 3.78125 26.902344 3.472656 26.976562 C 3.410156 26.988281 3.347656 27 3.28125 27.011719 C 3.292969 27.085938 3.292969 27.160156 3.304688 27.222656 C 3.398438 28.234375 3.570312 29.238281 3.792969 30.226562 C 3.792969 30.121094 3.804688 30.027344 3.816406 29.917969 C 3.847656 29.640625 3.898438 29.363281 3.984375 29.085938 C 4.082031 28.800781 4.21875 28.523438 4.390625 28.265625 C 4.730469 27.734375 5.296875 27.265625 6.074219 26.933594 C 5.96875 29.289062 5.605469 30.503906 5.09375 31.15625 C 4.914062 31.410156 4.667969 31.613281 4.378906 31.742188 C 4.316406 31.773438 4.25 31.792969 4.1875 31.804688 C 4.464844 32.765625 4.804688 33.710938 5.199219 34.628906 C 5.230469 34.703125 5.273438 34.777344 5.304688 34.851562 C 5.285156 34.757812 5.273438 34.648438 5.265625 34.554688 C 5.253906 34.414062 5.242188 34.277344 5.242188 34.136719 C 5.242188 34 5.253906 33.851562 5.273438 33.703125 C 5.304688 33.394531 5.390625 33.105469 5.507812 32.816406 C 5.808594 32.144531 6.285156 31.582031 6.914062 31.199219 C 6.949219 31.496094 7 31.761719 7.023438 32.019531 C 7.042969 32.273438 7.066406 32.519531 7.085938 32.742188 C 7.105469 32.964844 7.105469 33.179688 7.105469 33.382812 C 7.105469 33.585938 7.117188 33.765625 7.105469 33.9375 C 7.066406 34.640625 6.949219 35.140625 6.765625 35.503906 C 6.636719 35.789062 6.4375 36.035156 6.179688 36.226562 C 6.128906 36.269531 6.074219 36.300781 6.011719 36.332031 C 6.308594 36.910156 6.636719 37.472656 6.980469 38.015625 C 7.214844 38.390625 7.46875 38.753906 7.726562 39.105469 C 7.683594 39.007812 7.652344 38.914062 7.617188 38.816406 C 7.300781 37.78125 7.332031 36.410156 8.554688 35.203125 C 8.75 35.757812 8.917969 36.226562 9.027344 36.675781 C 9.144531 37.058594 9.226562 37.441406 9.292969 37.835938 C 9.34375 38.132812 9.367188 38.445312 9.367188 38.742188 C 9.367188 38.976562 9.34375 39.199219 9.292969 39.433594 C 9.226562 39.742188 9.078125 40.03125 8.875 40.265625 C 8.832031 40.320312 8.78125 40.363281 8.738281 40.402344 C 8.929688 40.628906 9.121094 40.851562 9.324219 41.066406 C 9.855469 41.640625 10.433594 42.195312 11.027344 42.707031 C 10.976562 42.632812 10.910156 42.546875 10.867188 42.460938 C 10.730469 42.214844 10.613281 41.960938 10.515625 41.695312 C 10.421875 41.40625 10.378906 41.097656 10.367188 40.789062 C 10.359375 40.628906 10.367188 40.46875 10.390625 40.308594 C 10.410156 40.136719 10.441406 39.96875 10.496094 39.796875 C 10.601562 39.421875 10.773438 39.070312 10.984375 38.742188 C 11.59375 39.722656 12.019531 40.457031 12.277344 41.109375 C 12.394531 41.382812 12.488281 41.671875 12.550781 41.96875 C 12.605469 42.195312 12.636719 42.429688 12.636719 42.652344 C 12.648438 42.960938 12.574219 43.269531 12.433594 43.558594 C 12.402344 43.613281 12.371094 43.664062 12.328125 43.71875 C 13.203125 44.359375 14.140625 44.910156 15.121094 45.378906 C 15.046875 45.316406 14.972656 45.253906 14.898438 45.179688 C 14.695312 44.976562 14.523438 44.761719 14.363281 44.527344 C 14.203125 44.273438 14.078125 43.984375 14 43.695312 C 13.917969 43.378906 13.875 43.035156 13.894531 42.707031 C 13.917969 42.320312 13.992188 41.9375 14.117188 41.578125 C 14.917969 42.363281 15.515625 42.960938 15.917969 43.527344 C 16.101562 43.761719 16.269531 44.015625 16.398438 44.28125 C 16.503906 44.484375 16.589844 44.699219 16.65625 44.921875 C 16.742188 45.21875 16.761719 45.539062 16.699219 45.847656 C 16.6875 45.914062 16.664062 45.976562 16.644531 46.03125 C 17.453125 46.328125 18.296875 46.574219 19.148438 46.746094 C 20.40625 46.988281 21.683594 47.105469 22.964844 47.074219 L 22.984375 47.074219 C 23.625 47.0625 24.273438 47.054688 24.925781 47.148438 C 25.550781 47.246094 26.160156 47.457031 26.726562 47.757812 C 27.289062 47.449219 27.898438 47.246094 28.527344 47.148438 C 29.164062 47.0625 29.816406 47.042969 30.464844 47.074219 L 30.484375 47.074219 C 31.765625 47.105469 33.042969 46.988281 34.300781 46.746094 C 34.492188 46.703125 34.683594 46.660156 34.886719 46.617188 C 34.875 46.550781 34.867188 46.488281 34.855469 46.425781 C 34.832031 46.117188 34.875 45.796875 35.003906 45.507812 C 35.089844 45.296875 35.195312 45.09375 35.335938 44.910156 C 35.503906 44.667969 35.6875 44.433594 35.898438 44.21875 C 36.015625 44.101562 36.144531 43.964844 36.28125 43.835938 C 36.421875 43.707031 36.582031 43.570312 36.742188 43.429688 C 36.902344 43.292969 37.082031 43.132812 37.273438 42.984375 C 37.464844 42.832031 37.667969 42.652344 37.890625 42.492188 C 37.988281 42.867188 38.019531 43.261719 38 43.644531 C 37.988281 43.8125 37.964844 43.984375 37.925781 44.15625 C 37.882812 44.316406 37.839844 44.464844 37.773438 44.613281 C 37.65625 44.902344 37.507812 45.15625 37.316406 45.402344 C 37.136719 45.613281 36.933594 45.816406 36.71875 46 C 36.632812 46.0625 36.550781 46.117188 36.464844 46.167969 C 36.964844 46 37.464844 45.796875 37.957031 45.582031 C 38.445312 45.371094 38.945312 45.101562 39.425781 44.835938 C 39.394531 44.785156 39.363281 44.71875 39.339844 44.667969 C 39.234375 44.367188 39.191406 44.058594 39.234375 43.75 C 39.257812 43.527344 39.308594 43.292969 39.394531 43.078125 C 39.492188 42.792969 39.609375 42.515625 39.757812 42.246094 C 40.078125 41.628906 40.566406 40.9375 41.257812 40.03125 C 41.441406 40.371094 41.566406 40.734375 41.632812 41.117188 C 41.664062 41.289062 41.683594 41.460938 41.695312 41.640625 C 41.695312 41.800781 41.695312 41.960938 41.675781 42.121094 C 41.632812 42.417969 41.558594 42.714844 41.441406 42.992188 C 41.324219 43.25 41.183594 43.496094 41.015625 43.71875 C 40.949219 43.804688 40.886719 43.878906 40.824219 43.953125 C 41.71875 43.335938 42.546875 42.640625 43.328125 41.886719 C 43.285156 41.84375 43.242188 41.789062 43.199219 41.734375 C 43.015625 41.480469 42.898438 41.183594 42.867188 40.871094 C 42.835938 40.636719 42.835938 40.414062 42.859375 40.179688 C 42.878906 39.882812 42.933594 39.574219 43.015625 39.285156 C 43.113281 38.902344 43.242188 38.527344 43.390625 38.167969 C 43.464844 37.953125 43.550781 37.730469 43.65625 37.496094 C 43.761719 37.269531 43.859375 37.003906 43.988281 36.75 C 45.09375 38.050781 45.019531 39.425781 44.605469 40.425781 C 44.5625 40.519531 44.519531 40.605469 44.476562 40.691406 C 45.191406 39.882812 45.851562 39.007812 46.4375 38.101562 C 46.382812 38.070312 46.332031 38.027344 46.277344 37.984375 C 46.042969 37.773438 45.863281 37.515625 45.757812 37.21875 C 45.605469 36.835938 45.53125 36.324219 45.542969 35.628906 C 45.554688 34.9375 45.703125 34.054688 45.96875 32.921875 C 47.324219 33.96875 47.523438 35.332031 47.332031 36.398438 C 47.3125 36.503906 47.289062 36.601562 47.269531 36.695312 C 47.632812 36.035156 47.972656 35.351562 48.269531 34.648438 C 48.398438 34.351562 48.527344 34.042969 48.644531 33.734375 C 48.578125 33.710938 48.527344 33.679688 48.460938 33.648438 C 48.195312 33.488281 47.960938 33.277344 47.800781 33.007812 C 47.34375 32.316406 47.078125 31.070312 47.164062 28.726562 C 48.675781 29.492188 49.175781 30.792969 49.175781 31.867188 C 49.175781 31.976562 49.175781 32.070312 49.175781 32.167969 C 49.496094 31.132812 49.75 30.078125 49.945312 29.003906 C 49.878906 28.992188 49.816406 28.980469 49.75 28.960938 C 49.453125 28.851562 49.1875 28.683594 48.972656 28.449219 C 48.6875 28.148438 48.421875 27.714844 48.175781 27.050781 C 48.109375 26.882812 48.066406 26.710938 48.003906 26.519531 C 47.941406 26.328125 47.886719 26.113281 47.832031 25.890625 C 47.78125 25.667969 47.738281 25.433594 47.683594 25.175781 C 47.632812 24.921875 47.597656 24.644531 47.546875 24.355469 C 48.25 24.546875 48.890625 24.941406 49.367188 25.496094 C 49.558594 25.730469 49.730469 25.996094 49.847656 26.273438 C 49.964844 26.53125 50.0625 26.796875 50.113281 27.085938 C 50.136719 27.191406 50.144531 27.296875 50.167969 27.394531 C 50.167969 27.339844 50.179688 27.285156 50.1875 27.234375 C 50.296875 26.199219 50.339844 25.167969 50.328125 24.132812 C 50.261719 24.132812 50.199219 24.132812 50.136719 24.121094 C 49.828125 24.078125 49.527344 23.953125 49.28125 23.761719 C 49.089844 23.621094 48.921875 23.460938 48.773438 23.28125 C 48.570312 23.046875 48.398438 22.789062 48.238281 22.523438 C 48.152344 22.375 48.058594 22.203125 47.972656 22.035156 C 47.875 21.851562 47.792969 21.660156 47.695312 21.449219 C 47.597656 21.234375 47.515625 21.011719 47.417969 20.765625 C 47.324219 20.519531 47.226562 20.265625 47.128906 19.988281 C 48.835938 20.148438 49.742188 21.191406 50.15625 22.183594 C 50.199219 22.277344 50.230469 22.375 50.261719 22.46875 C 50.1875 21.488281 50.0625 20.519531 49.878906 19.550781 C 49.859375 19.445312 49.835938 19.347656 49.816406 19.242188 C 49.75 19.253906 49.6875 19.261719 49.625 19.261719 C 49.316406 19.273438 48.996094 19.210938 48.71875 19.070312 C 48.503906 18.976562 48.3125 18.847656 48.132812 18.699219 C 47.886719 18.507812 47.664062 18.292969 47.472656 18.058594 C 47.003906 17.535156 46.5 16.800781 45.90625 15.800781 C 46.289062 15.757812 46.683594 15.769531 47.066406 15.84375 C 47.398438 15.90625 47.714844 16.011719 48.015625 16.171875 C 48.28125 16.320312 48.539062 16.503906 48.75 16.714844 C 48.953125 16.917969 49.132812 17.132812 49.292969 17.367188 C 49.347656 17.460938 49.398438 17.546875 49.453125 17.644531 C 49.164062 16.589844 48.8125 15.554688 48.386719 14.554688 C 48.324219 14.574219 48.269531 14.597656 48.207031 14.617188 C 47.910156 14.691406 47.589844 14.691406 47.289062 14.605469 C 46.886719 14.511719 46.425781 14.285156 45.863281 13.871094 C 45.296875 13.457031 44.667969 12.835938 43.878906 11.996094 C 44.253906 11.878906 44.636719 11.804688 45.03125 11.804688 C 45.371094 11.792969 45.703125 11.835938 46.023438 11.933594 C 46.585938 12.101562 47.097656 12.410156 47.515625 12.835938 C 47.589844 12.914062 47.664062 12.988281 47.726562 13.070312 C 47.597656 12.828125 47.472656 12.582031 47.34375 12.335938 C 46.960938 11.621094 46.523438 10.929688 46.066406 10.269531 C 46.011719 10.3125 45.957031 10.34375 45.894531 10.375 C 45.617188 10.515625 45.308594 10.578125 44.988281 10.558594 C 44.753906 10.546875 44.519531 10.515625 44.296875 10.460938 C 44.007812 10.375 43.722656 10.28125 43.445312 10.152344 C 42.816406 9.875 42.058594 9.417969 41.121094 8.789062 C 41.449219 8.585938 41.8125 8.425781 42.1875 8.332031 C 42.507812 8.246094 42.847656 8.214844 43.175781 8.234375 C 43.476562 8.253906 43.773438 8.308594 44.0625 8.40625 C 44.328125 8.5 44.582031 8.628906 44.816406 8.777344 C 44.902344 8.839844 44.988281 8.894531 45.074219 8.957031 C 44.371094 8.085938 43.605469 7.273438 42.773438 6.53125 C 42.71875 6.519531 42.664062 6.507812 42.613281 6.496094 C 42.464844 6.453125 42.28125 6.414062 42.078125 6.335938 C 41.984375 6.304688 41.878906 6.261719 41.761719 6.210938 C 41.644531 6.15625 41.527344 6.113281 41.410156 6.050781 C 40.8125 5.75 40.234375 5.390625 39.714844 4.972656 C 38.9375 4.355469 38.191406 3.683594 37.488281 2.980469 C 38.53125 2.980469 39.566406 3.214844 40.511719 3.664062 C 41.175781 3.972656 41.761719 4.417969 42.238281 4.964844 C 42.335938 5.070312 42.421875 5.175781 42.496094 5.28125 C 42.570312 5.390625 42.632812 5.496094 42.6875 5.589844 C 42.78125 5.75 42.867188 5.921875 42.933594 6.101562 C 42.953125 6.167969 42.976562 6.21875 42.996094 6.273438 C 43.335938 6.582031 43.667969 6.890625 43.988281 7.222656 C 43.933594 7.125 43.871094 7.03125 43.816406 6.921875 C 43.6875 6.667969 43.570312 6.402344 43.464844 6.125 C 43.359375 5.824219 43.273438 5.507812 43.210938 5.199219 C 43.070312 4.441406 43.113281 3.671875 43.316406 2.925781 C 44.414062 3.984375 45.011719 4.929688 45.320312 5.6875 C 45.628906 6.445312 45.671875 7.019531 45.605469 7.433594 C 45.5625 7.753906 45.4375 8.042969 45.222656 8.289062 C 45.179688 8.339844 45.128906 8.382812 45.074219 8.425781 C 45.789062 9.277344 46.4375 10.183594 47.011719 11.121094 C 46.980469 11.015625 46.949219 10.910156 46.917969 10.800781 C 46.640625 9.738281 46.511719 8.339844 47.363281 6.828125 C 48.164062 8.097656 48.527344 9.140625 48.664062 9.9375 C 48.71875 10.28125 48.738281 10.632812 48.71875 10.972656 C 48.695312 11.21875 48.644531 11.464844 48.558594 11.699219 C 48.453125 11.996094 48.261719 12.25 48.003906 12.441406 C 47.949219 12.484375 47.886719 12.519531 47.832031 12.550781 C 48.34375 13.53125 48.792969 14.554688 49.164062 15.585938 C 49.15625 15.480469 49.144531 15.375 49.132812 15.257812 C 49.082031 14.160156 49.25 12.773438 50.414062 11.472656 C 50.925781 12.871094 51.050781 13.957031 51.019531 14.765625 C 50.988281 15.574219 50.785156 16.109375 50.550781 16.460938 C 50.378906 16.726562 50.144531 16.949219 49.859375 17.078125 C 49.792969 17.109375 49.730469 17.132812 49.667969 17.140625 C 49.878906 17.898438 50.070312 18.667969 50.222656 19.445312 C 50.285156 19.753906 50.328125 20.0625 50.378906 20.371094 C 50.390625 20.265625 50.402344 20.15625 50.421875 20.050781 C 50.582031 18.964844 51.019531 17.644531 52.425781 16.597656 C 52.640625 18.058594 52.554688 19.144531 52.375 19.933594 C 52.296875 20.273438 52.179688 20.59375 52.023438 20.902344 C 51.90625 21.128906 51.765625 21.332031 51.59375 21.511719 C 51.382812 21.746094 51.09375 21.917969 50.785156 21.992188 C 50.722656 22 50.65625 22.011719 50.582031 22.023438 C 50.679688 23.121094 50.710938 24.230469 50.679688 25.335938 C 50.699219 25.230469 50.730469 25.132812 50.773438 25.027344 C 50.964844 24.453125 51.253906 23.898438 51.628906 23.417969 C 52.097656 22.820312 52.691406 22.34375 53.386719 22.023438 C 53.320312 23.492188 53.042969 24.539062 52.703125 25.273438 C 52.566406 25.59375 52.394531 25.890625 52.179688 26.15625 C 52.03125 26.347656 51.851562 26.53125 51.648438 26.679688 C 51.394531 26.871094 51.082031 26.976562 50.773438 27 C 50.710938 27 50.636719 27 50.574219 26.988281 C 50.5625 27.0625 50.5625 27.136719 50.550781 27.210938 C 50.445312 28.246094 50.285156 29.269531 50.050781 30.269531 C 50.105469 30.175781 50.144531 30.078125 50.199219 29.984375 C 50.445312 29.503906 50.828125 29.011719 51.277344 28.609375 Z M 51.277344 28.609375 " fill-opacity="1" fill-rule="nonzero"/></g><g fill="#004aad" fill-opacity="1"><g transform="translate(13.918334, 45.670241)"><g><path d="M 2.375 -7.421875 L 2.375 0 L 24.3125 0 L 24.3125 -7.46875 L 13.609375 -7.46875 C 13.609375 -7.46875 13.84375 -8 14.375 -8.9375 C 14.890625 -9.890625 15.5625 -11.078125 16.3125 -12.515625 L 18.796875 -17.125 C 19.65625 -18.796875 20.5 -20.359375 21.3125 -21.84375 C 22.078125 -23.3125 22.75 -24.59375 23.3125 -25.640625 C 23.890625 -26.6875 24.21875 -27.265625 24.3125 -27.453125 L 24.3125 -34.875 L 2.375 -34.875 L 2.375 -27.40625 L 13.078125 -27.40625 C 13.03125 -27.359375 12.84375 -27.03125 12.5625 -26.453125 C 12.28125 -25.875 11.84375 -25.125 11.375 -24.171875 C 10.84375 -23.21875 10.28125 -22.125 9.609375 -20.9375 C 8.9375 -19.75 8.328125 -18.5625 7.65625 -17.3125 C 7 -16.078125 6.328125 -14.84375 5.703125 -13.65625 C 5.046875 -12.46875 4.46875 -11.421875 4 -10.515625 C 3.515625 -9.5625 3.09375 -8.84375 2.8125 -8.28125 Z M 2.375 -7.421875 "/></g></g></g><g clip-path="url(#60cce133f9)"><path fill="#004aad" d="M 22.539062 9.667969 C 23.097656 9.9375 24.789062 10.242188 27.246094 10.246094 C 29.707031 10.242188 31.398438 9.9375 31.957031 9.667969 C 31.398438 9.394531 29.707031 9.089844 27.246094 9.089844 C 24.785156 9.089844 23.09375 9.394531 22.539062 9.667969 " fill-opacity="1" fill-rule="nonzero"/></g><g clip-path="url(#62532b83b5)"><path fill="#004aad" d="M 32.636719 5.914062 C 32.351562 6.222656 32.082031 6.46875 31.820312 6.65625 C 31.394531 6.539062 30.9375 6.433594 30.457031 6.351562 C 30.527344 6.273438 30.597656 6.1875 30.667969 6.101562 C 31.105469 5.546875 31.5 4.855469 31.5 4.191406 C 31.503906 3.882812 31.457031 3.613281 31.371094 3.371094 C 31.375 3.367188 31.375 3.363281 31.378906 3.355469 C 31.371094 3.339844 31.367188 3.320312 31.363281 3.296875 C 31.707031 3.136719 32.054688 3.039062 32.386719 3.039062 C 32.628906 3.039062 32.847656 3.097656 33.019531 3.210938 C 33.035156 3.21875 33.050781 3.226562 33.066406 3.238281 C 33.238281 3.367188 33.457031 3.65625 33.496094 4.046875 C 33.511719 4.207031 33.496094 4.371094 33.457031 4.542969 C 33.347656 4.855469 33.105469 5.289062 32.789062 5.738281 C 32.742188 5.792969 32.691406 5.851562 32.636719 5.914062 Z M 29.542969 6.222656 C 29.363281 6.203125 29.183594 6.1875 29.003906 6.171875 C 28.765625 6.152344 28.527344 6.136719 28.285156 6.125 C 28.109375 6.113281 27.796875 6.105469 27.621094 6.101562 C 27.632812 5.324219 27.601562 4.535156 27.683594 4.050781 C 27.804688 3.328125 28.523438 2.839844 29.160156 2.828125 C 29.535156 2.820312 29.949219 2.882812 30.253906 3.132812 C 30.289062 3.160156 30.320312 3.191406 30.351562 3.222656 C 30.476562 3.351562 30.574219 3.523438 30.628906 3.746094 C 30.664062 3.875 30.679688 4.019531 30.679688 4.1875 C 30.679688 4.21875 30.671875 4.257812 30.667969 4.292969 C 30.660156 4.394531 30.628906 4.507812 30.5625 4.65625 C 30.402344 4.996094 30.15625 5.417969 29.863281 5.808594 C 29.757812 5.953125 29.648438 6.09375 29.542969 6.222656 Z M 26.207031 6.125 C 25.96875 6.136719 25.726562 6.152344 25.492188 6.171875 C 25.308594 6.1875 25.128906 6.203125 24.949219 6.222656 C 24.84375 6.09375 24.734375 5.953125 24.628906 5.808594 C 24.339844 5.417969 24.089844 4.996094 23.933594 4.65625 C 23.863281 4.507812 23.835938 4.394531 23.824219 4.292969 C 23.820312 4.257812 23.8125 4.21875 23.8125 4.1875 C 23.8125 4.019531 23.832031 3.875 23.863281 3.746094 C 23.917969 3.523438 24.019531 3.351562 24.140625 3.222656 C 24.171875 3.191406 24.207031 3.160156 24.238281 3.132812 C 24.542969 2.882812 24.960938 2.820312 25.332031 2.828125 C 25.96875 2.839844 26.6875 3.328125 26.808594 4.050781 C 26.890625 4.535156 26.859375 5.324219 26.871094 6.101562 C 26.695312 6.105469 26.382812 6.113281 26.207031 6.125 Z M 22.675781 6.65625 C 22.410156 6.46875 22.140625 6.222656 21.855469 5.914062 C 21.804688 5.851562 21.753906 5.792969 21.703125 5.738281 C 21.386719 5.289062 21.144531 4.855469 21.039062 4.542969 C 20.996094 4.371094 20.984375 4.207031 20.996094 4.046875 C 21.035156 3.65625 21.253906 3.367188 21.429688 3.238281 C 21.441406 3.226562 21.457031 3.21875 21.472656 3.210938 C 21.644531 3.097656 21.863281 3.039062 22.105469 3.039062 C 22.4375 3.039062 22.789062 3.136719 23.128906 3.296875 C 23.125 3.320312 23.121094 3.339844 23.113281 3.355469 C 23.117188 3.363281 23.121094 3.367188 23.121094 3.371094 C 23.039062 3.613281 22.988281 3.882812 22.992188 4.191406 C 22.996094 4.855469 23.390625 5.546875 23.828125 6.101562 C 23.898438 6.1875 23.96875 6.273438 24.039062 6.351562 C 23.554688 6.433594 23.101562 6.539062 22.675781 6.65625 Z M 33.164062 6.398438 C 34.894531 4.515625 34.113281 3.117188 33.488281 2.660156 C 33.414062 2.605469 33.332031 2.558594 33.25 2.515625 C 32.996094 2.386719 32.703125 2.324219 32.386719 2.324219 C 32.363281 2.324219 32.335938 2.324219 32.308594 2.324219 C 31.863281 2.339844 31.402344 2.480469 30.964844 2.699219 C 30.957031 2.691406 30.949219 2.683594 30.941406 2.675781 C 30.488281 2.21875 29.835938 2.027344 29.128906 2.050781 C 28.679688 2.066406 28.265625 2.226562 27.914062 2.492188 C 28.105469 2.328125 28.222656 2.097656 28.210938 1.84375 C 28.191406 1.402344 27.824219 1.046875 27.367188 0.980469 C 27.367188 0.902344 27.367188 0.734375 27.367188 0.65625 C 27.492188 0.65625 27.613281 0.652344 27.738281 0.652344 L 27.738281 0.425781 C 27.613281 0.429688 27.488281 0.429688 27.363281 0.429688 C 27.363281 0.292969 27.363281 0.15625 27.359375 0.0195312 C 27.324219 0.0195312 27.285156 0.0195312 27.246094 0.0195312 C 27.207031 0.0195312 27.171875 0.0195312 27.132812 0.0195312 C 27.132812 0.15625 27.128906 0.292969 27.128906 0.429688 C 27.019531 0.429688 26.910156 0.429688 26.796875 0.425781 L 26.796875 0.652344 C 26.929688 0.65625 27.042969 0.65625 27.128906 0.65625 C 27.125 0.734375 27.125 0.902344 27.125 0.980469 C 26.671875 1.046875 26.304688 1.402344 26.28125 1.84375 C 26.273438 2.097656 26.386719 2.328125 26.578125 2.492188 C 26.226562 2.226562 25.8125 2.066406 25.363281 2.050781 C 24.65625 2.027344 24.003906 2.21875 23.550781 2.675781 C 23.542969 2.683594 23.539062 2.691406 23.53125 2.699219 C 23.09375 2.480469 22.632812 2.339844 22.183594 2.324219 C 22.15625 2.324219 22.132812 2.324219 22.105469 2.324219 C 21.792969 2.324219 21.5 2.386719 21.242188 2.515625 C 21.160156 2.558594 21.082031 2.605469 21.003906 2.660156 C 20.378906 3.117188 19.597656 4.515625 21.332031 6.398438 C 21.277344 6.339844 21.226562 6.28125 21.175781 6.222656 C 21.171875 6.226562 21.167969 6.226562 21.164062 6.230469 C 21.394531 6.515625 21.625 6.769531 21.808594 6.949219 C 21.804688 6.949219 21.800781 6.949219 21.796875 6.953125 C 22.203125 7.277344 22.070312 7.601562 22.21875 7.925781 L 22.191406 7.925781 C 22.191406 7.933594 22.191406 7.941406 22.195312 7.949219 C 22.15625 7.957031 22.113281 7.960938 22.074219 7.96875 C 22.03125 8.121094 21.988281 8.273438 21.945312 8.429688 C 22.023438 8.5625 22.101562 8.691406 22.179688 8.820312 C 22.214844 8.8125 22.25 8.808594 22.285156 8.800781 C 22.332031 9.230469 22.375 9.621094 22.375 9.621094 L 22.382812 9.621094 C 22.542969 9.21875 24.65625 8.898438 27.246094 8.898438 C 29.835938 8.898438 31.953125 9.21875 32.109375 9.621094 L 32.117188 9.621094 C 32.117188 9.621094 32.164062 9.230469 32.207031 8.800781 C 32.246094 8.808594 32.28125 8.8125 32.316406 8.820312 C 32.394531 8.691406 32.46875 8.5625 32.546875 8.429688 C 32.507812 8.273438 32.460938 8.121094 32.417969 7.96875 C 32.378906 7.960938 32.339844 7.957031 32.300781 7.949219 C 32.300781 7.941406 32.300781 7.933594 32.300781 7.925781 L 32.273438 7.925781 C 32.421875 7.601562 32.289062 7.277344 32.695312 6.953125 C 32.691406 6.949219 32.6875 6.949219 32.683594 6.949219 C 32.871094 6.769531 33.097656 6.515625 33.328125 6.230469 C 33.324219 6.226562 33.320312 6.226562 33.316406 6.222656 C 33.269531 6.28125 33.21875 6.339844 33.164062 6.398438 " fill-opacity="1" fill-rule="nonzero"/></g><g fill="#004aad" fill-opacity="1"><g transform="translate(40.412744, 45.063889)"><g><path d="M 20.90625 -10.140625 C 20.90625 -6.796875 20.070312 -4.222656 18.40625 -2.421875 C 16.75 -0.617188 14.375 0.28125 11.28125 0.28125 C 8.175781 0.28125 5.789062 -0.617188 4.125 -2.421875 C 2.46875 -4.222656 1.640625 -6.804688 1.640625 -10.171875 C 1.640625 -13.535156 2.472656 -16.101562 4.140625 -17.875 C 5.804688 -19.65625 8.195312 -20.546875 11.3125 -20.546875 C 14.414062 -20.546875 16.789062 -19.648438 18.4375 -17.859375 C 20.082031 -16.078125 20.90625 -13.503906 20.90625 -10.140625 Z M 6.140625 -10.140625 C 6.140625 -7.878906 6.566406 -6.175781 7.421875 -5.03125 C 8.285156 -3.894531 9.570312 -3.328125 11.28125 -3.328125 C 14.695312 -3.328125 16.40625 -5.597656 16.40625 -10.140625 C 16.40625 -14.703125 14.707031 -16.984375 11.3125 -16.984375 C 9.601562 -16.984375 8.3125 -16.40625 7.4375 -15.25 C 6.570312 -14.101562 6.140625 -12.398438 6.140625 -10.140625 Z M 6.140625 -10.140625 "/></g></g></g><g fill="#004aad" fill-opacity="1"><g transform="translate(62.971886, 45.063889)"><g><path d="M 6.84375 -11.25 L 8.21875 -11.25 C 9.570312 -11.25 10.570312 -11.472656 11.21875 -11.921875 C 11.863281 -12.378906 12.1875 -13.09375 12.1875 -14.0625 C 12.1875 -15.019531 11.859375 -15.703125 11.203125 -16.109375 C 10.546875 -16.515625 9.523438 -16.71875 8.140625 -16.71875 L 6.84375 -16.71875 Z M 6.84375 -7.765625 L 6.84375 0 L 2.546875 0 L 2.546875 -20.234375 L 8.4375 -20.234375 C 11.1875 -20.234375 13.222656 -19.734375 14.546875 -18.734375 C 15.867188 -17.734375 16.53125 -16.210938 16.53125 -14.171875 C 16.53125 -12.984375 16.203125 -11.925781 15.546875 -11 C 14.890625 -10.070312 13.960938 -9.34375 12.765625 -8.8125 C 15.804688 -4.269531 17.789062 -1.332031 18.71875 0 L 13.953125 0 L 9.125 -7.765625 Z M 6.84375 -7.765625 "/></g></g></g><g fill="#004aad" fill-opacity="1"><g transform="translate(81.683518, 45.063889)"><g><path d="M 14.9375 0 L 13.46875 -4.8125 L 6.09375 -4.8125 L 4.625 0 L 0 0 L 7.140625 -20.3125 L 12.390625 -20.3125 L 19.5625 0 Z M 12.4375 -8.421875 C 11.082031 -12.773438 10.316406 -15.238281 10.140625 -15.8125 C 9.972656 -16.382812 9.851562 -16.835938 9.78125 -17.171875 C 9.476562 -15.992188 8.609375 -13.078125 7.171875 -8.421875 Z M 12.4375 -8.421875 "/></g></g></g><g fill="#004aad" fill-opacity="1"><g transform="translate(101.239388, 45.063889)"><g><path d="M 2.546875 0 L 2.546875 -20.234375 L 6.84375 -20.234375 L 6.84375 0 Z M 2.546875 0 "/></g></g></g><g fill="#004aad" fill-opacity="1"><g transform="translate(110.622884, 45.063889)"><g><path d="M 19.328125 -10.3125 C 19.328125 -6.976562 18.378906 -4.425781 16.484375 -2.65625 C 14.585938 -0.882812 11.851562 0 8.28125 0 L 2.546875 0 L 2.546875 -20.234375 L 8.90625 -20.234375 C 12.207031 -20.234375 14.769531 -19.359375 16.59375 -17.609375 C 18.414062 -15.867188 19.328125 -13.4375 19.328125 -10.3125 Z M 14.875 -10.203125 C 14.875 -14.546875 12.957031 -16.71875 9.125 -16.71875 L 6.84375 -16.71875 L 6.84375 -3.546875 L 8.671875 -3.546875 C 12.804688 -3.546875 14.875 -5.765625 14.875 -10.203125 Z M 14.875 -10.203125 "/></g></g></g><g fill="#004aad" fill-opacity="1"><g transform="translate(131.60427, 45.063889)"><g><path d="M 14.203125 0 L 2.546875 0 L 2.546875 -20.234375 L 14.203125 -20.234375 L 14.203125 -16.71875 L 6.84375 -16.71875 L 6.84375 -12.28125 L 13.6875 -12.28125 L 13.6875 -8.765625 L 6.84375 -8.765625 L 6.84375 -3.546875 L 14.203125 -3.546875 Z M 14.203125 0 "/></g></g></g><g fill="#004aad" fill-opacity="1"><g transform="translate(147.488409, 45.063889)"><g/></g></g><g fill="#004aad" fill-opacity="1"><g transform="translate(62.357344, 56.845741)"><g><path d="M 9.34375 -4.984375 C 9.34375 -3.367188 8.882812 -2.132812 7.96875 -1.28125 C 7.050781 -0.425781 5.726562 0 4 0 L 1.234375 0 L 1.234375 -9.78125 L 4.296875 -9.78125 C 5.898438 -9.78125 7.140625 -9.359375 8.015625 -8.515625 C 8.898438 -7.671875 9.34375 -6.492188 9.34375 -4.984375 Z M 7.1875 -4.9375 C 7.1875 -7.03125 6.257812 -8.078125 4.40625 -8.078125 L 3.3125 -8.078125 L 3.3125 -1.71875 L 4.1875 -1.71875 C 6.1875 -1.71875 7.1875 -2.789062 7.1875 -4.9375 Z M 7.1875 -4.9375 "/></g></g></g><g fill="#004aad" fill-opacity="1"><g transform="translate(72.501237, 56.845741)"><g><path d="M 6.859375 0 L 1.234375 0 L 1.234375 -9.78125 L 6.859375 -9.78125 L 6.859375 -8.078125 L 3.3125 -8.078125 L 3.3125 -5.9375 L 6.625 -5.9375 L 6.625 -4.234375 L 3.3125 -4.234375 L 3.3125 -1.71875 L 6.859375 -1.71875 Z M 6.859375 0 "/></g></g></g><g fill="#004aad" fill-opacity="1"><g transform="translate(80.17607, 56.845741)"><g/></g></g><g fill="#004aad" fill-opacity="1"><g transform="translate(83.7358, 56.845741)"><g><path d="M 5.390625 -8.203125 C 4.609375 -8.203125 4.003906 -7.90625 3.578125 -7.3125 C 3.148438 -6.726562 2.9375 -5.910156 2.9375 -4.859375 C 2.9375 -2.679688 3.753906 -1.59375 5.390625 -1.59375 C 6.078125 -1.59375 6.90625 -1.765625 7.875 -2.109375 L 7.875 -0.375 C 7.070312 -0.03125 6.175781 0.140625 5.1875 0.140625 C 3.769531 0.140625 2.679688 -0.289062 1.921875 -1.15625 C 1.171875 -2.019531 0.796875 -3.257812 0.796875 -4.875 C 0.796875 -5.894531 0.976562 -6.785156 1.34375 -7.546875 C 1.71875 -8.316406 2.25 -8.90625 2.9375 -9.3125 C 3.632812 -9.71875 4.453125 -9.921875 5.390625 -9.921875 C 6.335938 -9.921875 7.289062 -9.691406 8.25 -9.234375 L 7.578125 -7.546875 C 7.210938 -7.722656 6.84375 -7.875 6.46875 -8 C 6.101562 -8.132812 5.742188 -8.203125 5.390625 -8.203125 Z M 5.390625 -8.203125 "/></g></g></g><g fill="#004aad" fill-opacity="1"><g transform="translate(92.467845, 56.845741)"><g><path d="M 7.21875 0 L 6.515625 -2.328125 L 2.9375 -2.328125 L 2.234375 0 L 0 0 L 3.453125 -9.828125 L 5.984375 -9.828125 L 9.453125 0 Z M 6.015625 -4.0625 C 5.359375 -6.175781 4.988281 -7.367188 4.90625 -7.640625 C 4.820312 -7.921875 4.765625 -8.140625 4.734375 -8.296875 C 4.585938 -7.734375 4.164062 -6.320312 3.46875 -4.0625 Z M 6.015625 -4.0625 "/></g></g></g><g fill="#004aad" fill-opacity="1"><g transform="translate(101.922543, 56.845741)"><g><path d="M 3.3125 -5.4375 L 3.96875 -5.4375 C 4.625 -5.4375 5.109375 -5.546875 5.421875 -5.765625 C 5.734375 -5.984375 5.890625 -6.328125 5.890625 -6.796875 C 5.890625 -7.265625 5.726562 -7.59375 5.40625 -7.78125 C 5.09375 -7.976562 4.601562 -8.078125 3.9375 -8.078125 L 3.3125 -8.078125 Z M 3.3125 -3.75 L 3.3125 0 L 1.234375 0 L 1.234375 -9.78125 L 4.078125 -9.78125 C 5.410156 -9.78125 6.394531 -9.535156 7.03125 -9.046875 C 7.664062 -8.566406 7.984375 -7.835938 7.984375 -6.859375 C 7.984375 -6.273438 7.820312 -5.757812 7.5 -5.3125 C 7.1875 -4.863281 6.742188 -4.515625 6.171875 -4.265625 C 7.640625 -2.066406 8.597656 -0.644531 9.046875 0 L 6.75 0 L 4.40625 -3.75 Z M 3.3125 -3.75 "/></g></g></g><g fill="#004aad" fill-opacity="1"><g transform="translate(110.969076, 56.845741)"><g><path d="M 6.8125 -9.78125 L 8.90625 -9.78125 L 5.578125 0 L 3.3125 0 L 0 -9.78125 L 2.09375 -9.78125 L 3.9375 -3.96875 C 4.039062 -3.625 4.144531 -3.222656 4.25 -2.765625 C 4.363281 -2.304688 4.429688 -1.988281 4.453125 -1.8125 C 4.503906 -2.21875 4.671875 -2.9375 4.953125 -3.96875 Z M 6.8125 -9.78125 "/></g></g></g><g fill="#004aad" fill-opacity="1"><g transform="translate(119.875093, 56.845741)"><g><path d="M 7.21875 0 L 6.515625 -2.328125 L 2.9375 -2.328125 L 2.234375 0 L 0 0 L 3.453125 -9.828125 L 5.984375 -9.828125 L 9.453125 0 Z M 6.015625 -4.0625 C 5.359375 -6.175781 4.988281 -7.367188 4.90625 -7.640625 C 4.820312 -7.921875 4.765625 -8.140625 4.734375 -8.296875 C 4.585938 -7.734375 4.164062 -6.320312 3.46875 -4.0625 Z M 6.015625 -4.0625 "/></g></g></g><g fill="#004aad" fill-opacity="1"><g transform="translate(129.32979, 56.845741)"><g><path d="M 1.234375 0 L 1.234375 -9.78125 L 3.3125 -9.78125 L 3.3125 -1.71875 L 7.265625 -1.71875 L 7.265625 0 Z M 1.234375 0 "/></g></g></g><g fill="#004aad" fill-opacity="1"><g transform="translate(137.071535, 56.845741)"><g><path d="M 9.25 0 L 7.171875 0 L 7.171875 -4.21875 L 3.3125 -4.21875 L 3.3125 0 L 1.234375 0 L 1.234375 -9.78125 L 3.3125 -9.78125 L 3.3125 -5.953125 L 7.171875 -5.953125 L 7.171875 -9.78125 L 9.25 -9.78125 Z M 9.25 0 "/></g></g></g><g fill="#004aad" fill-opacity="1"><g transform="translate(147.556681, 56.845741)"><g><path d="M 10.109375 -4.90625 C 10.109375 -3.28125 9.707031 -2.03125 8.90625 -1.15625 C 8.101562 -0.289062 6.953125 0.140625 5.453125 0.140625 C 3.953125 0.140625 2.800781 -0.289062 2 -1.15625 C 1.195312 -2.03125 0.796875 -3.285156 0.796875 -4.921875 C 0.796875 -6.546875 1.195312 -7.785156 2 -8.640625 C 2.8125 -9.503906 3.96875 -9.9375 5.46875 -9.9375 C 6.96875 -9.9375 8.113281 -9.503906 8.90625 -8.640625 C 9.707031 -7.773438 10.109375 -6.53125 10.109375 -4.90625 Z M 2.96875 -4.90625 C 2.96875 -3.8125 3.175781 -2.988281 3.59375 -2.4375 C 4.007812 -1.882812 4.628906 -1.609375 5.453125 -1.609375 C 7.109375 -1.609375 7.9375 -2.707031 7.9375 -4.90625 C 7.9375 -7.101562 7.113281 -8.203125 5.46875 -8.203125 C 4.644531 -8.203125 4.019531 -7.925781 3.59375 -7.375 C 3.175781 -6.820312 2.96875 -6 2.96875 -4.90625 Z M 2.96875 -4.90625 "/></g></g></g><g fill="#004aad" fill-opacity="1"><g transform="translate(158.463373, 56.845741)"><g/></g></g><g fill="#004aad" fill-opacity="1"><g transform="translate(162.023104, 56.845741)"><g><path d="M 10.109375 -4.90625 C 10.109375 -3.28125 9.707031 -2.03125 8.90625 -1.15625 C 8.101562 -0.289062 6.953125 0.140625 5.453125 0.140625 C 3.953125 0.140625 2.800781 -0.289062 2 -1.15625 C 1.195312 -2.03125 0.796875 -3.285156 0.796875 -4.921875 C 0.796875 -6.546875 1.195312 -7.785156 2 -8.640625 C 2.8125 -9.503906 3.96875 -9.9375 5.46875 -9.9375 C 6.96875 -9.9375 8.113281 -9.503906 8.90625 -8.640625 C 9.707031 -7.773438 10.109375 -6.53125 10.109375 -4.90625 Z M 2.96875 -4.90625 C 2.96875 -3.8125 3.175781 -2.988281 3.59375 -2.4375 C 4.007812 -1.882812 4.628906 -1.609375 5.453125 -1.609375 C 7.109375 -1.609375 7.9375 -2.707031 7.9375 -4.90625 C 7.9375 -7.101562 7.113281 -8.203125 5.46875 -8.203125 C 4.644531 -8.203125 4.019531 -7.925781 3.59375 -7.375 C 3.175781 -6.820312 2.96875 -6 2.96875 -4.90625 Z M 2.96875 -4.90625 "/></g></g></g><g fill="#004aad" fill-opacity="1"><g transform="translate(172.929797, 56.845741)"><g><path d="M 1.234375 0 L 1.234375 -9.78125 L 3.3125 -9.78125 L 3.3125 -1.71875 L 7.265625 -1.71875 L 7.265625 0 Z M 1.234375 0 "/></g></g></g><g fill="#004aad" fill-opacity="1"><g transform="translate(180.671541, 56.845741)"><g><path d="M 1.234375 0 L 1.234375 -9.78125 L 3.3125 -9.78125 L 3.3125 0 Z M 1.234375 0 "/></g></g></g><g fill="#004aad" fill-opacity="1"><g transform="translate(185.20819, 56.845741)"><g><path d="M 6.8125 -9.78125 L 8.90625 -9.78125 L 5.578125 0 L 3.3125 0 L 0 -9.78125 L 2.09375 -9.78125 L 3.9375 -3.96875 C 4.039062 -3.625 4.144531 -3.222656 4.25 -2.765625 C 4.363281 -2.304688 4.429688 -1.988281 4.453125 -1.8125 C 4.503906 -2.21875 4.671875 -2.9375 4.953125 -3.96875 Z M 6.8125 -9.78125 "/></g></g></g><g fill="#004aad" fill-opacity="1"><g transform="translate(194.114207, 56.845741)"><g><path d="M 6.859375 0 L 1.234375 0 L 1.234375 -9.78125 L 6.859375 -9.78125 L 6.859375 -8.078125 L 3.3125 -8.078125 L 3.3125 -5.9375 L 6.625 -5.9375 L 6.625 -4.234375 L 3.3125 -4.234375 L 3.3125 -1.71875 L 6.859375 -1.71875 Z M 6.859375 0 "/></g></g></g><g fill="#004aad" fill-opacity="1"><g transform="translate(201.78904, 56.845741)"><g><path d="M 1.234375 0 L 1.234375 -9.78125 L 3.3125 -9.78125 L 3.3125 0 Z M 1.234375 0 "/></g></g></g><g fill="#004aad" fill-opacity="1"><g transform="translate(206.325689, 56.845741)"><g><path d="M 3.3125 -5.4375 L 3.96875 -5.4375 C 4.625 -5.4375 5.109375 -5.546875 5.421875 -5.765625 C 5.734375 -5.984375 5.890625 -6.328125 5.890625 -6.796875 C 5.890625 -7.265625 5.726562 -7.59375 5.40625 -7.78125 C 5.09375 -7.976562 4.601562 -8.078125 3.9375 -8.078125 L 3.3125 -8.078125 Z M 3.3125 -3.75 L 3.3125 0 L 1.234375 0 L 1.234375 -9.78125 L 4.078125 -9.78125 C 5.410156 -9.78125 6.394531 -9.535156 7.03125 -9.046875 C 7.664062 -8.566406 7.984375 -7.835938 7.984375 -6.859375 C 7.984375 -6.273438 7.820312 -5.757812 7.5 -5.3125 C 7.1875 -4.863281 6.742188 -4.515625 6.171875 -4.265625 C 7.640625 -2.066406 8.597656 -0.644531 9.046875 0 L 6.75 0 L 4.40625 -3.75 Z M 3.3125 -3.75 "/></g></g></g><g clip-path="url(#50be31d22e)"><g fill="#004aad" fill-opacity="1"><g transform="translate(215.372221, 56.845741)"><g><path d="M 7.21875 0 L 6.515625 -2.328125 L 2.9375 -2.328125 L 2.234375 0 L 0 0 L 3.453125 -9.828125 L 5.984375 -9.828125 L 9.453125 0 Z M 6.015625 -4.0625 C 5.359375 -6.175781 4.988281 -7.367188 4.90625 -7.640625 C 4.820312 -7.921875 4.765625 -8.140625 4.734375 -8.296875 C 4.585938 -7.734375 4.164062 -6.320312 3.46875 -4.0625 Z M 6.015625 -4.0625 "/></g></g></g></g></svg>